<?xml version="1.0" encoding="UTF-8" standalone="no"?>
<!-- Created with Inkscape (http://www.inkscape.org/) -->

<svg
   version="1.1"
   id="svg2"
   width="426.66666"
   height="426.66666"
   viewBox="0 0 426.66666 426.66666"
   sodipodi:docname="icon.ai"
   xmlns:inkscape="http://www.inkscape.org/namespaces/inkscape"
   xmlns:sodipodi="http://sodipodi.sourceforge.net/DTD/sodipodi-0.dtd"
   xmlns="http://www.w3.org/2000/svg"
   xmlns:svg="http://www.w3.org/2000/svg">
  <defs
     id="defs6">
    <clipPath
       clipPathUnits="userSpaceOnUse"
       id="clipPath16">
      <path
         d="M 0,320 H 320 V 0 H 0 Z"
         id="path14" />
    </clipPath>
  </defs>
  <sodipodi:namedview
     id="namedview4"
     pagecolor="#ffffff"
     bordercolor="#000000"
     borderopacity="0.25"
     inkscape:showpageshadow="2"
     inkscape:pageopacity="0.0"
     inkscape:pagecheckerboard="0"
     inkscape:deskcolor="#d1d1d1" />
  <g
     id="g8"
     inkscape:groupmode="layer"
     inkscape:label="icon"
     transform="matrix(1.3333333,0,0,-1.3333333,0,426.66667)">
    <g
       id="g10">
      <g
         id="g12"
         clip-path="url(#clipPath16)">
        <g
           id="g18"
           transform="translate(320,156.267)">
          <path
             d="m 0,0 c 0,-46.495 -19.838,-88.364 -51.511,-117.597 -6.244,-5.763 -12.948,-11.038 -20.051,-15.758 23.214,22.861 37.605,54.653 37.605,89.806 0,69.61 -56.432,126.043 -126.043,126.043 -69.611,0 -126.043,-56.433 -126.043,-126.043 0,-35.153 14.391,-66.945 37.605,-89.806 -7.103,4.72 -13.807,9.995 -20.051,15.758 C -300.162,-88.364 -320,-46.495 -320,0 c 0,88.368 71.636,160.004 160,160.004 C -71.636,160.004 0,88.368 0,0"
             style="fill:#000000;fill-opacity:1;fill-rule:nonzero;stroke:none"
             id="path20" />
        </g>
        <g
           id="g22"
           transform="translate(271.6895,110.602)">
          <path
             d="m 0,0 c 0,-36.459 -17.472,-68.843 -44.502,-89.227 13.794,15.722 22.15,36.324 22.15,58.881 0,49.337 -39.996,89.337 -89.337,89.337 -49.342,0 -89.338,-40 -89.338,-89.337 0,-22.557 8.356,-43.159 22.151,-58.881 -27.031,20.384 -44.503,52.768 -44.503,89.227 0,61.686 50.007,111.689 111.69,111.689 C -50.007,111.689 0,61.686 0,0"
             style="fill:#000000;fill-opacity:1;fill-rule:nonzero;stroke:none"
             id="path24" />
        </g>
        <g
           id="g26"
           transform="translate(235.2934,78.7377)">
          <path
             d="m 0,0 c 0,-19.011 -7.042,-36.374 -18.668,-49.624 -13.797,-15.736 -34.052,-25.669 -56.625,-25.669 -22.574,0 -42.828,9.933 -56.625,25.669 -11.627,13.25 -18.669,30.613 -18.669,49.624 0,41.582 33.709,75.293 75.294,75.293 C -33.708,75.293 0,41.582 0,0"
             style="fill:#000000;fill-opacity:1;fill-rule:nonzero;stroke:none"
             id="path28" />
        </g>
      </g>
    </g>
  </g>
</svg>
